<svg width="24" height="25" viewBox="0 0 24 25" fill="none" xmlns="http://www.w3.org/2000/svg">
<rect y="0.560852" width="23.9583" height="23.9583" rx="11.9791" fill="#FFE252"/>
<path d="M6.02522 16.3769C6.02522 16.0846 6.26217 15.8477 6.55446 15.8477H17.4038C17.6961 15.8477 17.933 16.0846 17.933 16.3769C17.933 17.546 16.9852 18.4938 15.8161 18.4938H8.14216C6.97301 18.4938 6.02522 17.546 6.02522 16.3769Z" fill="#323232"/>
<path fill-rule="evenodd" clip-rule="evenodd" d="M6.55446 15.8477C6.26217 15.8477 6.02522 16.0846 6.02522 16.3769C6.02522 17.546 6.97301 18.4938 8.14216 18.4938H15.8161C16.9852 18.4938 17.933 17.546 17.933 16.3769C17.933 16.0846 17.6961 15.8477 17.4038 15.8477H6.55446Z" fill="#323232"/>
<path fill-rule="evenodd" clip-rule="evenodd" d="M13.7511 9.46546C13.8871 9.1966 13.9638 8.8926 13.9638 8.57069C13.9638 7.47461 13.0752 6.58606 11.9791 6.58606C10.883 6.58606 9.99449 7.47461 9.99449 8.57069C9.99449 8.8926 10.0711 9.1966 10.2072 9.46546C8.16629 10.1101 6.68677 12.0186 6.68677 14.2726C6.68677 14.4118 6.7996 14.5246 6.93878 14.5246H17.0195C17.1586 14.5246 17.2715 14.4118 17.2715 14.2726C17.2715 12.0186 15.792 10.1101 13.7511 9.46546ZM12.6407 8.57069C12.6407 8.93605 12.3445 9.23224 11.9791 9.23224C11.6138 9.23224 11.3176 8.93605 11.3176 8.57069C11.3176 8.20533 11.6138 7.90915 11.9791 7.90915C12.3445 7.90915 12.6407 8.20533 12.6407 8.57069Z" fill="#323232"/>
</svg>
