<svg width="24" height="25" viewBox="0 0 24 25" fill="none" xmlns="http://www.w3.org/2000/svg">
<rect y="0.625549" width="23.9583" height="23.9583" rx="11.9791" fill="#FFE252"/>
<g clip-path="url(#clip0_1_424)">
<path fill-rule="evenodd" clip-rule="evenodd" d="M19.0624 15.4446C19.3207 15.703 19.3207 16.1218 19.0624 16.3802L16.4162 19.0264C16.1578 19.2847 15.739 19.2847 15.4806 19.0264L14.1575 17.7033C13.8992 17.4449 13.8992 17.0261 14.1575 16.7677C14.4159 16.5094 14.8347 16.5094 15.0931 16.7677L15.9484 17.623L18.1268 15.4446C18.3851 15.1863 18.804 15.1863 19.0624 15.4446Z" fill="#323232"/>
<path fill-rule="evenodd" clip-rule="evenodd" d="M5.36369 10.4877C5.36369 9.37623 5.36369 8.82048 5.58 8.39595C5.77027 8.02251 6.07388 7.7189 6.44731 7.52863C6.87185 7.31232 7.4276 7.31232 8.5391 7.31232H15.4192C16.5307 7.31232 17.0864 7.31232 17.5109 7.52863C17.8844 7.7189 18.188 8.02251 18.3783 8.39595C18.5946 8.82048 18.5946 9.37623 18.5946 10.4877V12.737C18.5946 12.9222 18.5946 13.0149 18.5585 13.0856C18.5268 13.1478 18.4762 13.1985 18.414 13.2302C18.3432 13.2662 18.2506 13.2662 18.0653 13.2662H16.6099C14.4178 13.2662 12.6407 15.0433 12.6407 17.2355V17.3678C12.6407 17.553 12.6407 17.6457 12.6046 17.7164C12.5729 17.7787 12.5223 17.8293 12.4601 17.861C12.3893 17.897 12.2967 17.897 12.1114 17.897H8.5391C7.4276 17.897 6.87185 17.897 6.44731 17.6807C6.07388 17.4904 5.77027 17.1868 5.58 16.8134C5.36369 16.3889 5.36369 15.8331 5.36369 14.7216V10.4877ZM8.12588 10.2458C8.33257 9.94453 8.74435 9.86784 9.04563 10.0745L11.6049 11.8302C11.8304 11.9849 12.1279 11.9849 12.3534 11.8302L14.9126 10.0745C15.2139 9.86784 15.6257 9.94453 15.8324 10.2458C16.039 10.5471 15.9624 10.9589 15.6611 11.1656L13.1018 12.9212C12.4253 13.3853 11.533 13.3853 10.8564 12.9212L8.29718 11.1656C7.9959 10.9589 7.9192 10.5471 8.12588 10.2458Z" fill="#323232"/>
</g>
<defs>
<clipPath id="clip0_1_424">
<rect width="15.8771" height="15.8771" fill="white" transform="translate(4.0406 4.66614)"/>
</clipPath>
</defs>
</svg>
