<svg width="24" height="25" viewBox="0 0 24 25" fill="none" xmlns="http://www.w3.org/2000/svg">
<rect y="0.806702" width="23.9583" height="23.9583" rx="11.9791" fill="#FFE252"/>
<path d="M12.0152 11.4627H11.9439C11.9556 11.4628 11.9673 11.4629 11.9791 11.4629C11.9912 11.4629 12.0033 11.4628 12.0152 11.4627Z" fill="#323232"/>
<path d="M15.9732 11.4627C15.9649 11.4628 15.9567 11.4629 15.9484 11.4629C15.9388 11.4629 15.9293 11.4628 15.9198 11.4627H15.9732Z" fill="#323232"/>
<path d="M16.7809 12.6644C17.0147 12.5956 17.2715 12.7576 17.2715 13.0013V16.7551C17.2715 17.8511 16.3829 18.7397 15.2868 18.7397H14.0561C13.6397 18.7397 13.3022 18.4022 13.3022 17.9858V16.0935C13.3022 15.3628 12.7099 14.7704 11.9791 14.7704C11.2484 14.7704 10.656 15.3628 10.656 16.0935V17.9858C10.656 18.4022 10.3185 18.7397 9.90219 18.7397H8.67141C7.57533 18.7397 6.68678 17.8511 6.68678 16.7551V13.0011C6.68678 12.7574 6.94351 12.5954 7.17737 12.6642C7.44103 12.7418 7.72003 12.7858 8.00986 12.7858C8.70341 12.7858 9.27648 12.5719 9.72577 12.2972C9.84523 12.2242 9.99641 12.2247 10.1163 12.2971C10.5992 12.5887 11.2157 12.7859 11.9789 12.786C12.7424 12.7861 13.359 12.589 13.842 12.2972C13.9619 12.2249 14.1131 12.2244 14.2325 12.2974C14.6818 12.5721 15.2549 12.786 15.9484 12.786C16.2382 12.786 16.5172 12.742 16.7809 12.6644Z" fill="#323232"/>
<path d="M8.67141 6.83218C9.33295 6.8314 14.6253 6.8331 15.2868 6.83279C16.6099 6.83218 17.933 7.82449 17.933 9.47835C17.933 10.4707 16.9407 11.463 15.9484 11.463C14.6253 11.463 13.9638 10.1399 13.9638 10.1399C13.9638 10.1399 13.633 11.4632 11.9791 11.463C10.3253 11.4628 9.9945 10.1399 9.9945 10.1399C9.9945 10.1399 9.33295 11.4628 8.00986 11.4628C7.01755 11.4628 6.02523 10.4707 6.02523 9.47835C6.02523 7.82449 7.34832 6.83374 8.67141 6.83218Z" fill="#323232"/>
</svg>
