<svg width="24" height="25" viewBox="0 0 24 25" fill="none" xmlns="http://www.w3.org/2000/svg">
<rect y="0.50592" width="23.9583" height="23.9583" rx="11.9791" fill="#FFE252"/>
<path fill-rule="evenodd" clip-rule="evenodd" d="M17.8495 14.2124C18.1827 14.5908 18.5946 15.1739 18.5946 15.8893C18.5946 16.9321 17.7492 17.7774 16.7065 17.7774H7.2518C6.20902 17.7774 5.36369 16.9321 5.36369 15.8893C5.36369 15.1739 5.77553 14.5908 6.10871 14.2124C6.36851 13.9173 6.68677 13.3828 6.68677 12.485C6.68677 11.5872 6.36851 11.0528 6.10871 10.7577C5.77553 10.3793 5.36369 9.7962 5.36369 9.08081C5.36369 8.03804 6.20902 7.1927 7.25179 7.1927L16.7065 7.19269C17.7492 7.19269 18.5946 8.03802 18.5946 9.0808C18.5946 9.7962 18.1827 10.3793 17.8495 10.7577C17.5897 11.0528 17.2715 11.5872 17.2715 12.485C17.2715 13.3828 17.5897 13.9173 17.8495 14.2124ZM13.77 10.6942C13.5116 10.4358 13.0928 10.4358 12.8344 10.6942L10.1883 13.3403C9.92991 13.5987 9.92991 14.0176 10.1883 14.2759C10.4466 14.5343 10.8655 14.5343 11.1238 14.2759L13.77 11.6297C14.0283 11.3714 14.0283 10.9525 13.77 10.6942ZM11.3176 11.162C11.3176 11.5273 11.0214 11.8235 10.656 11.8235C10.2907 11.8235 9.99449 11.5273 9.99449 11.162C9.99449 10.7966 10.2907 10.5004 10.656 10.5004C11.0214 10.5004 11.3176 10.7966 11.3176 11.162ZM12.6407 13.8081C12.6407 14.1735 12.9369 14.4697 13.3022 14.4697C13.6676 14.4697 13.9638 14.1735 13.9638 13.8081C13.9638 13.4428 13.6676 13.1466 13.3022 13.1466C12.9369 13.1466 12.6407 13.4428 12.6407 13.8081Z" fill="#323232"/>
</svg>
